HIERARCHY
ROOT Hips
{
  OFFSET 49.6862 100.575 14.7961
  CHANNELS 6 Xposition Yposition Zposition Zrotation Xrotation Yrotation
  JOINT spine
  {
    OFFSET 0 8.81705 0.507024
    CHANNELS 3 Zrotation Xrotation Yrotation
    JOINT spine1
    {
      OFFSET 0 10.7766 0
      CHANNELS 3 Zrotation Xrotation Yrotation
      JOINT spine2
      {
        OFFSET 0 10.3259 0
        CHANNELS 3 Zrotation Xrotation Yrotation
        JOINT Neck
        {
          OFFSET 0 26.511 1.26395
          CHANNELS 3 Zrotation Xrotation Yrotation
          JOINT Head
          {
            OFFSET 0 8.00966 0
            CHANNELS 3 Zrotation Xrotation Yrotation
            End Site
            {
              OFFSET 0 19.3879 -6.39386
            }
          }
        }
        JOINT RightShoulder
        {
          OFFSET -4.34795 11.1512 -0.605422
          CHANNELS 3 Zrotation Xrotation Yrotation
          JOINT RightArm
          {
            OFFSET 0 14.6258 0
            CHANNELS 3 Zrotation Xrotation Yrotation
            JOINT RightArmRoll
            {
              OFFSET 0 7.3834 0
              CHANNELS 3 Zrotation Xrotation Yrotation
              JOINT RightForeArm
              {
                OFFSET 0 21.5052 0
                CHANNELS 3 Zrotation Xrotation Yrotation
                JOINT RightForeArmRoll
                {
                  OFFSET 0 8.28532 0
                  CHANNELS 3 Zrotation Xrotation Yrotation
                  JOINT RightHand
                  {
                    OFFSET 0 16.6268 0
                    CHANNELS 3 Zrotation Xrotation Yrotation
                    End Site
                    {
                      OFFSET 0 0 0
                    }
                  }
                }
              }
            }
          }
        }
        JOINT LeftShoulder
        {
          OFFSET 4.34795 11.1512 -0.605422
          CHANNELS 3 Zrotation Xrotation Yrotation
          JOINT LeftArm
          {
            OFFSET 0 14.6258 0
            CHANNELS 3 Zrotation Xrotation Yrotation
            JOINT LeftArmRoll
            {
              OFFSET 0 7.3834 0
              CHANNELS 3 Zrotation Xrotation Yrotation
              JOINT LeftForeArm
              {
                OFFSET 0 21.5052 0
                CHANNELS 3 Zrotation Xrotation Yrotation
                JOINT LeftForeArmRoll
                {
                  OFFSET 0 8.28532 0
                  CHANNELS 3 Zrotation Xrotation Yrotation
                  JOINT LeftHand
                  {
                    OFFSET 0 16.6268 0
                    CHANNELS 3 Zrotation Xrotation Yrotation
                    End Site
                    {
                      OFFSET 0 0 0
                    }
                  }
                }
              }
            }
          }
        }
      }
    }
  }
  JOINT RightUpLeg
  {
    OFFSET -7.8151 -1.43309 -1.20217
    CHANNELS 3 Zrotation Xrotation Yrotation
    JOINT RightUpLegRoll
    {
      OFFSET 0 19.4959 0
      CHANNELS 3 Zrotation Xrotation Yrotation
      JOINT RightLeg
      {
        OFFSET 0 -24.1427 0
        CHANNELS 3 Zrotation Xrotation Yrotation
        JOINT RightLegRoll
        {
          OFFSET 0 24.2217 0
          CHANNELS 3 Zrotation Xrotation Yrotation
          JOINT RightFoot
          {
            OFFSET 0 20.1605 0
            CHANNELS 3 Zrotation Xrotation Yrotation
            JOINT RightToeBase
            {
              OFFSET 0 16.8532 0
              CHANNELS 3 Zrotation Xrotation Yrotation
              End Site
              {
                OFFSET 0.00714343 8.16187 -0.94078
              }
            }
          }
        }
      }
    }
  }
  JOINT LeftUpLeg
  {
    OFFSET 7.8151 -1.43309 -1.20217
    CHANNELS 3 Zrotation Xrotation Yrotation
    JOINT LeftUpLegRoll
    {
      OFFSET 0 19.496 0
      CHANNELS 3 Zrotation Xrotation Yrotation
      JOINT LeftLeg
      {
        OFFSET 0 24.1426 0
        CHANNELS 3 Zrotation Xrotation Yrotation
        JOINT LeftLegRoll
        {
          OFFSET 0 24.4456 0
          CHANNELS 3 Zrotation Xrotation Yrotation
          JOINT LeftFoot
          {
            OFFSET 0 19.9366 0
            CHANNELS 3 Zrotation Xrotation Yrotation
            JOINT LeftToeBase
            {
              OFFSET 0 16.8532 0
              CHANNELS 3 Zrotation Xrotation Yrotation
              End Site
              {
                OFFSET -0.0320138 8.16186 -0.940781
              }
            }
          }
        }
      }
    }
  }
}
MOTION
Frames: 9
Frame Time: 0.00208333
50.3782 100.62 13.3358 -0.285115 -1.85739 3.08813 0.166267 -2.12433 -0.132852 0.328687 -0.246236 -0.272433 0.332164 1.39882 -0.278088 1.27119 25.6624 1.96024 -6.99802 2.84991 1.83334 69.1819 -2.8328 -2.67717 104.045 14.711 7.97595 4.27084e-006 1.46832e-006 4.06287e-007 17.8493 7.1331 -1.17027 -2.15557e-006 4.27056e-008 -3.00361 8.02917 -4.95141 0.697696 -60.8135 -4.46822 2.92907 -109.684 12.4289 -10.408 4.0765e-005 -4.93083e-007 6.43907e-006 -7.67194 2.80704 0.8829 1.15471e-005 -3.10875e-006 3 -8.02916 -4.95146 -0.697662 179.708 -0.882481 -1.31057 180 7.01553e-015 178.948 178.941 5.2247 179.691 -4.82786e-006 -3.5404e-006 0.0268325 -18.2261 67.4589 19.1033 8.13649 25.2326 -3.48774 -177.919 0.269027 3.17368 4.54188e-006 -4.6773e-006 -1.07807 -1.6491 -7.47706 0.207072 -1.12726e-006 -1.61772e-006 -0.140058 19.6079 69.1566 -20.5405 -8.13649 25.2326 3.48773 
50.3787 100.621 13.3224 -0.285672 -1.85533 3.08682 0.165962 -2.12428 -0.133061 0.328315 -0.246136 -0.273459 0.331819 1.39892 -0.279096 1.26596 25.6572 1.96519 -7.00458 2.85779 1.83605 69.1952 -2.83211 -2.67793 104.04 14.7189 8.02883 4.27084e-006 1.46832e-006 4.06287e-007 17.8109 7.11053 -1.16716 -2.15557e-006 4.27056e-008 -3.00361 8.02917 -4.95141 0.697696 -60.8161 -4.46651 2.92826 -109.675 12.3983 -10.4236 4.0765e-005 -4.93083e-007 6.43907e-006 -7.66959 2.83512 0.884768 1.15471e-005 -3.10875e-006 3 -8.02916 -4.95146 -0.697662 179.71 -0.892687 -1.3126 180 7.01553e-015 178.948 178.943 5.21219 179.69 -4.82786e-006 -3.5404e-006 0.0268325 -18.2261 67.4589 19.1033 8.13649 25.2326 -3.48774 -177.921 0.26901 3.18068 4.54188e-006 -4.6773e-006 -1.07806 -1.64173 -7.4705 0.207857 -1.12726e-006 -1.61772e-006 -0.139995 19.6076 69.1563 -20.5402 -8.13649 25.2326 3.48773 
50.3748 100.62 13.3245 -0.28622 -1.85328 3.08554 0.165642 -2.12425 -0.133263 0.32792 -0.246092 -0.274491 0.331451 1.39896 -0.28011 1.26065 25.6524 1.97016 -7.01107 2.86571 1.83875 69.209 -2.83136 -2.67872 104.035 14.7276 8.08112 4.27084e-006 1.46832e-006 4.06287e-007 17.773 7.0865 -1.1638 -2.15557e-006 4.27056e-008 -3.00361 8.02917 -4.95141 0.697696 -60.819 -4.46431 2.92718 -109.665 12.3682 -10.4392 4.0765e-005 -4.93083e-007 6.43907e-006 -7.66718 2.86299 0.886596 1.15471e-005 -3.10875e-006 3 -8.02916 -4.95146 -0.697662 179.712 -0.903689 -1.31469 180 7.01553e-015 178.948 178.945 5.19898 179.69 -4.82786e-006 -3.5404e-006 0.0268325 -18.2261 67.4589 19.1033 8.13649 25.2326 -3.48774 -177.923 0.268914 3.18788 4.54188e-006 -4.6773e-006 -1.07805 -1.63416 -7.46372 0.208665 -1.12726e-006 -1.61772e-006 -0.139928 19.6073 69.156 -20.5399 -8.13649 25.2326 3.48773 
50.3923 100.578 13.3034 -0.286762 -1.85121 3.08427 0.165309 -2.12425 -0.13346 0.327508 -0.246087 -0.275528 0.331068 1.39897 -0.281128 1.25529 25.648 1.97513 -7.0175 2.87365 1.84144 69.2232 -2.83057 -2.67951 104.029 14.7371 8.13302 4.27084e-006 1.46832e-006 4.06287e-007 17.7355 7.06144 -1.16025 -2.15557e-006 4.27056e-008 -3.00361 8.02917 -4.95141 0.697696 -60.8224 -4.46176 2.92593 -109.656 12.3386 -10.4548 4.0765e-005 -4.93083e-007 6.43907e-006 -7.66473 2.8907 0.888397 1.15471e-005 -3.10875e-006 3 -8.02916 -4.95146 -0.697662 179.714 -0.915248 -1.31684 180 7.01553e-015 178.948 178.947 5.18524 179.69 -4.82786e-006 -3.5404e-006 0.0268325 -18.2261 67.4589 19.1033 8.13649 25.2326 -3.48774 -177.925 0.268762 3.19522 4.54188e-006 -4.6773e-006 -1.07805 -1.62644 -7.45677 0.209488 -1.12726e-006 -1.61772e-006 -0.13986 19.607 69.1556 -20.5396 -8.13649 25.2326 3.48773 
50.3825 100.592 13.3019 -0.287301 -1.84915 3.08301 0.16497 -2.12425 -0.133653 0.327086 -0.246103 -0.276567 0.330676 1.39895 -0.282148 1.2499 25.6437 1.98011 -7.0239 2.88161 1.84412 69.2376 -2.82976 -2.68031 104.024 14.7469 8.18468 4.27084e-006 1.46832e-006 4.06287e-007 17.6982 7.0358 -1.15659 -2.15557e-006 4.27056e-008 -3.00361 8.02917 -4.95141 0.697696 -60.8259 -4.45902 2.92457 -109.646 12.3092 -10.4703 4.0765e-005 -4.93083e-007 6.43907e-006 -7.66225 2.91832 0.890183 1.15471e-005 -3.10875e-006 3 -8.02916 -4.95146 -0.697662 179.716 -0.927126 -1.31901 180 7.01553e-015 178.948 178.949 5.17123 179.689 -4.82786e-006 -3.5404e-006 0.0268325 -18.2261 67.4589 19.1033 8.13649 25.2326 -3.48774 -177.928 0.268579 3.20265 4.54188e-006 -4.6773e-006 -1.07805 -1.61865 -7.44973 0.21032 -1.12726e-006 -1.61772e-006 -0.13979 19.6066 69.1552 -20.5392 -8.13649 25.2326 3.48773 
50.37 100.622 13.3143 -0.287839 -1.84709 3.08175 0.16463 -2.12426 -0.133846 0.326662 -0.246125 -0.277607 0.330282 1.39893 -0.283168 1.2445 25.6396 1.98508 -7.03029 2.88958 1.8468 69.2521 -2.82894 -2.68112 104.018 14.7567 8.23629 4.27084e-006 1.46832e-006 4.06287e-007 17.6609 7.01001 -1.15291 -2.15557e-006 4.27056e-008 -3.00361 8.02917 -4.95141 0.697696 -60.8295 -4.45623 2.92319 -109.637 12.2798 -10.4858 4.0765e-005 -4.93083e-007 6.43907e-006 -7.65976 2.94592 0.891964 1.15471e-005 -3.10875e-006 3 -8.02916 -4.95146 -0.697662 179.718 -0.939084 -1.32119 180 7.01553e-015 178.948 178.951 5.15714 179.689 -4.82786e-006 -3.5404e-006 0.0268325 -18.2261 67.4589 19.1033 8.13649 25.2326 -3.48774 -177.93 0.268388 3.21009 4.54188e-006 -4.6773e-006 -1.07804 -1.61083 -7.44266 0.211154 -1.12726e-006 -1.61772e-006 -0.13972 19.6062 69.1548 -20.5388 -8.13649 25.2326 3.48773 
50.3841 100.617 13.3068 -0.288378 -1.84503 3.08048 0.164292 -2.12427 -0.13404 0.326243 -0.246136 -0.278645 0.329892 1.39892 -0.284187 1.23912 25.6353 1.99006 -7.03669 2.89753 1.84949 69.2665 -2.82813 -2.68192 104.012 14.7664 8.28802 4.27084e-006 1.46832e-006 4.06287e-007 17.6236 6.98452 -1.14929 -2.15557e-006 4.27056e-008 -3.00361 8.02917 -4.95141 0.697696 -60.833 -4.45354 2.92186 -109.627 12.2503 -10.5013 4.0765e-005 -4.93083e-007 6.43907e-006 -7.65729 2.97356 0.893754 1.15471e-005 -3.10875e-006 3 -8.02916 -4.95146 -0.697662 179.72 -0.950882 -1.32336 180 7.01553e-015 178.948 178.953 5.14317 179.688 -4.82786e-006 -3.5404e-006 0.0268325 -18.2261 67.4589 19.1033 8.13649 25.2326 -3.48774 -177.932 0.268212 3.21749 4.54188e-006 -4.6773e-006 -1.07804 -1.60306 -7.43564 0.211983 -1.12726e-006 -1.61772e-006 -0.139651 19.6059 69.1544 -20.5385 -8.13649 25.2326 3.48773 
50.3726 100.622 13.3071 -0.288922 -1.84297 3.07921 0.163963 -2.12426 -0.134238 0.325836 -0.24612 -0.279681 0.329514 1.39894 -0.285204 1.23377 25.6307 1.99503 -7.04314 2.90547 1.85218 69.2806 -2.82735 -2.68271 104.007 14.7756 8.34005 4.27084e-006 1.46832e-006 4.06287e-007 17.586 6.95975 -1.14579 -2.15557e-006 4.27056e-008 -3.00361 8.02917 -4.95141 0.697696 -60.8362 -4.45109 2.92066 -109.618 12.2206 -10.5169 4.0765e-005 -4.93083e-007 6.43907e-006 -7.65486 3.00132 0.895564 1.15471e-005 -3.10875e-006 3 -8.02916 -4.95146 -0.697662 179.722 -0.962282 -1.32549 180 7.01553e-015 178.948 178.955 5.12959 179.688 -4.82786e-006 -3.5404e-006 0.0268325 -18.2261 67.4589 19.1033 8.13649 25.2326 -3.48774 -177.935 0.268076 3.22479 4.54188e-006 -4.6773e-006 -1.07803 -1.59539 -7.42874 0.212801 -1.12726e-006 -1.61772e-006 -0.139583 19.6056 69.1541 -20.5382 -8.13649 25.2326 3.48773 
50.3672 100.626 13.3027 -0.289472 -1.84091 3.07792 0.163647 -2.12423 -0.134442 0.325447 -0.246059 -0.280711 0.329153 1.399 -0.286216 1.22849 25.6258 1.99998 -7.04966 2.91337 1.85489 69.2943 -2.82662 -2.68349 104.002 14.784 8.39255 4.27084e-006 1.46832e-006 4.06287e-007 17.548 6.93616 -1.14251 -2.15557e-006 4.27056e-008 -3.00361 8.02917 -4.95141 0.697696 -60.839 -4.44904 2.91966 -109.609 12.1904 -10.5325 4.0765e-005 -4.93083e-007 6.43907e-006 -7.65248 3.02925 0.897406 1.15471e-005 -3.10875e-006 3 -8.02916 -4.95146 -0.697662 179.724 -0.973045 -1.32756 180 7.01553e-015 178.948 178.957 5.11659 179.687 -4.82786e-006 -3.5404e-006 0.0268325 -18.2261 67.4589 19.1033 8.13649 25.2326 -3.48774 -177.937 0.268004 3.23193 4.54188e-006 -4.6773e-006 -1.07803 -1.58787 -7.42202 0.213602 -1.12726e-006 -1.61772e-006 -0.139517 19.6053 69.1537 -20.5379 -8.13649 25.2326 3.48773 
